<?xml version="1.0" standalone="no"?>
<!DOCTYPE svg PUBLIC "-//W3C//DTD SVG 20010904//EN"
 "http://www.w3.org/TR/2001/REC-SVG-20010904/DTD/svg10.dtd">
<svg version="1.0" xmlns="http://www.w3.org/2000/svg"
 width="225.000000pt" height="225.000000pt" viewBox="0 0 225.000000 225.000000"
 preserveAspectRatio="xMidYMid meet">

<g transform="translate(0.000000,225.000000) scale(0.100000,-0.100000)"
fill="#000000" stroke="none">
<path d="M990 2064 c-41 -14 -103 -42 -137 -62 -52 -30 -67 -45 -86 -86 -43
-91 -101 -280 -94 -307 4 -13 75 -109 158 -214 83 -104 176 -227 206 -273 51
-75 57 -82 71 -68 14 14 18 14 32 1 15 -13 23 -5 83 83 36 53 132 180 212 280
80 101 145 191 145 201 0 25 -58 205 -86 270 -33 74 -46 87 -135 131 -101 51
-184 75 -214 62 -13 -6 -27 -7 -36 -1 -21 13 -37 11 -119 -17z"/>
<path d="M534 1956 c-19 -19 -34 -43 -34 -55 0 -26 5 -26 30 -1 26 26 66 26
80 0 15 -29 -3 -86 -39 -124 l-30 -31 24 -30 24 -30 36 35 c87 84 102 225 28
259 -45 21 -83 13 -119 -23z"/>
<path d="M1580 1972 c-18 -14 -24 -32 -28 -73 -8 -99 18 -137 212 -303 143
-122 201 -195 222 -277 15 -59 5 -126 -26 -174 -19 -29 -19 -29 2 -67 12 -21
25 -38 29 -38 19 0 70 76 85 127 22 77 13 159 -26 240 -39 78 -148 196 -254
272 -101 73 -144 118 -156 161 -24 84 24 112 93 52 16 -14 17 -13 17 7 0 13
-15 38 -34 57 -27 27 -42 34 -74 34 -24 0 -49 -7 -62 -18z"/>
<path d="M345 1776 c-43 -18 -92 -78 -105 -127 -21 -78 2 -101 30 -27 21 59
70 91 128 85 83 -9 128 -86 120 -205 -6 -86 -36 -152 -124 -278 -36 -52 -63
-101 -60 -109 3 -8 18 -21 35 -29 l29 -16 65 98 c115 173 147 254 147 375 0
80 -15 120 -67 177 -59 67 -129 86 -198 56z"/>
<path d="M1760 1769 l-35 -22 34 -28 c28 -23 38 -26 54 -17 57 30 148 -21 168
-94 13 -51 29 -48 29 5 0 89 -90 177 -181 177 -19 0 -50 -10 -69 -21z"/>
<path d="M400 1637 c-30 -24 -81 -72 -113 -107 -214 -237 -148 -501 144 -576
54 -14 95 -16 259 -10 193 7 196 7 230 -16 61 -41 75 -78 78 -213 4 -134 -12
-237 -49 -311 -36 -72 -113 -119 -157 -95 -14 7 -31 6 -65 -7 -46 -18 -46 -18
-31 -41 21 -30 89 -61 134 -61 45 0 108 30 142 66 67 72 118 245 137 470 11
121 1 212 -30 285 -19 44 -28 52 -88 80 -36 17 -77 41 -89 52 -29 27 -51 68
-45 85 6 15 45 16 61 0 7 -7 12 -9 12 -4 0 12 -77 118 -120 166 -35 38 -41 41
-35 20 19 -80 19 -90 -6 -90 -43 1 -79 44 -79 94 0 33 -10 33 -42 -1 -61 -66
-84 -169 -54 -247 19 -51 56 -89 64 -67 2 7 13 22 24 33 39 39 119 4 92 -39
-22 -37 -84 -57 -190 -61 -164 -7 -256 30 -303 122 -63 123 -5 257 178 409
l43 36 -22 35 c-12 20 -22 36 -23 36 -1 0 -27 -19 -57 -43z"/>
<path d="M1651 1652 c-18 -33 -24 -124 -12 -187 15 -81 62 -176 159 -323 91
-137 122 -218 122 -316 0 -90 -51 -186 -110 -208 -4 -2 -3 -24 4 -49 l11 -47
37 19 c146 75 201 314 112 490 -13 26 -60 100 -105 165 -118 170 -142 227
-143 331 -1 79 -2 84 -32 114 -31 31 -32 31 -43 11z"/>
<path d="M1560 1421 c0 -41 -44 -91 -77 -89 -26 3 -27 10 -8 88 5 20 -2 16
-39 -25 -26 -27 -62 -73 -81 -102 -35 -51 -46 -78 -23 -55 14 14 54 16 63 2 7
-12 -10 -46 -39 -79 -11 -13 -53 -38 -92 -56 -65 -30 -72 -36 -92 -83 -44
-103 -46 -250 -6 -475 l17 -95 36 26 36 26 0 165 c0 186 8 214 75 259 34 23
37 23 225 16 183 -6 275 1 313 25 22 13 -23 95 -46 85 -32 -13 -201 -17 -249
-5 -91 23 -135 83 -80 108 30 14 82 -7 92 -36 8 -28 19 -26 44 5 62 79 50 214
-27 297 -33 35 -42 34 -42 -2z"/>
<path d="M245 968 c-20 -68 -19 -194 1 -255 45 -133 153 -210 322 -230 l52 -6
0 52 0 51 -38 0 c-149 0 -262 109 -262 252 0 19 6 56 13 84 l13 50 -43 26 -43
27 -15 -51z"/>
<path d="M773 933 c-18 -2 -33 -10 -33 -17 0 -7 -37 -44 -82 -82 -83 -70 -188
-188 -188 -210 0 -13 11 -18 68 -29 18 -4 32 -3 32 3 0 21 96 115 181 177 93
68 143 95 179 95 28 0 25 14 -11 44 -31 26 -58 30 -146 19z"/>
<path d="M1333 920 c-44 -27 -42 -46 6 -54 25 -4 70 -28 127 -69 l88 -63 23
45 23 46 -45 39 c-25 21 -45 44 -45 51 0 7 -19 15 -46 19 -74 10 -97 7 -131
-14z"/>
<path d="M449 879 c-42 -15 -62 -77 -39 -120 15 -27 28 -24 36 9 14 58 52 69
102 27 l29 -24 27 28 26 27 -23 22 c-40 38 -105 50 -158 31z"/>
<path d="M1685 876 c-62 -28 -126 -129 -141 -223 -6 -40 -5 -42 22 -48 16 -4
34 -8 41 -10 7 -3 16 18 24 53 21 102 71 172 124 172 26 0 40 -14 49 -52 14
-60 53 -6 42 57 -6 29 -14 39 -41 51 -42 17 -81 17 -120 0z"/>
<path d="M893 843 c-8 -3 -13 -23 -13 -47 0 -54 -40 -117 -100 -157 -24 -16
-46 -29 -49 -29 -3 0 -4 -22 -3 -50 4 -54 9 -57 52 -35 33 17 191 151 204 173
10 18 1 103 -14 132 -10 19 -47 26 -77 13z"/>
<path d="M1270 825 c-6 -14 -10 -50 -10 -80 l0 -53 88 -76 c48 -42 105 -85
127 -96 46 -22 129 -40 186 -40 35 0 39 3 39 24 0 57 -15 73 -74 79 -31 3 -82
17 -114 32 -95 43 -138 96 -151 184 -6 45 -7 46 -44 49 -32 3 -38 0 -47 -23z"/>
<path d="M1656 699 c-15 -50 -15 -54 3 -73 72 -80 64 -203 -16 -239 -16 -6
-31 -16 -36 -22 -4 -5 -4 15 -1 46 l6 56 -40 10 -41 11 -12 -57 c-20 -102 -63
-145 -119 -122 -30 11 -90 66 -90 80 0 18 -23 12 -54 -13 -28 -21 -29 -25 -17
-53 27 -65 114 -123 184 -123 50 0 118 40 145 86 13 21 21 32 19 23 -7 -22 38
-31 86 -18 115 31 172 189 113 314 -22 47 -88 136 -107 143 -4 2 -15 -20 -23
-49z"/>
<path d="M652 680 c-28 -27 -31 -35 -27 -78 3 -26 7 -82 11 -124 3 -43 10 -80
14 -83 5 -3 25 1 43 9 l35 14 -5 69 c-6 97 -23 207 -32 216 -5 5 -22 -6 -39
-23z"/>
<path d="M895 501 c-37 -9 -90 -36 -130 -66 -101 -75 -176 -71 -219 14 -10 19
-27 30 -61 39 -26 7 -49 11 -51 9 -10 -9 26 -110 50 -142 41 -53 72 -69 131
-69 59 1 132 31 214 88 29 20 61 37 70 38 9 0 23 1 31 2 21 1 45 77 28 88 -15
9 -21 9 -63 -1z"/>
<path d="M1276 500 c-63 -19 -136 -114 -136 -177 0 -81 53 -163 104 -163 14 0
26 3 26 6 0 4 -16 24 -35 45 -47 52 -48 103 -5 153 59 66 108 67 196 4 24 -17
46 -29 49 -27 2 3 11 21 19 41 l16 36 -50 32 c-27 18 -71 38 -96 46 -53 16
-48 15 -88 4z"/>
<path d="M1052 383 c-6 -21 -8 -59 -5 -84 5 -44 3 -49 -38 -95 l-44 -47 40 6
c52 8 80 41 96 110 9 45 9 63 -2 98 -18 55 -33 59 -47 12z"/>
</g>
</svg>
